<svg xmlns="http://www.w3.org/2000/svg" version="1.0" preserveAspectRatio="xMidYMid meet" viewBox="131 191 540 420">

<g transform="translate(0.000000,802.000000) scale(0.100000,-0.100000)" fill="#ffffff" stroke="none">
<path d="M3110 5810 l0 -300 -300 0 -300 0 0 -300 0 -300 -300 0 -300 0 0 -600 0 -600 -300 0 -300 0 0 -900 0 -900 2100 0 2100 0 0 600 0 600 300 0 300 0 0 600 0 600 300 0 300 0 0 600 0 600 -300 0 -300 0 0 300 0 300 -600 0 -600 0 0 -300 0 -300 -300 0 -300 0 0 300 0 300 -600 0 -600 0 0 -300z"/>
</g>
</svg>