<?xml version="1.0" encoding="utf-8"?>
<svg baseProfile="full" version="1.1" viewBox="0 0 12 10" shape-rendering="crispEdges"
    xmlns="http://www.w3.org/2000/svg"
    xmlns:ev="http://www.w3.org/2001/xml-events" xmlns:xlink="http://www.w3.org/1999/xlink">
    <defs />
    <rect fill="rgb(29%,50%,58%)" height="1" width="1" x="4" y="0" />
    <rect fill="rgb(29%,50%,58%)" height="1" width="1" x="5" y="0" />
    <rect fill="rgb(29%,50%,58%)" height="1" width="1" x="6" y="0" />
    <rect fill="rgb(29%,50%,58%)" height="1" width="1" x="7" y="0" />
    <rect fill="rgb(29%,50%,58%)" height="1" width="1" x="4" y="1" />
    <rect fill="rgb(29%,50%,58%)" height="1" width="1" x="5" y="1" />
    <rect fill="rgb(29%,50%,58%)" height="1" width="1" x="6" y="1" />
    <rect fill="rgb(29%,50%,58%)" height="1" width="1" x="7" y="1" />
    <rect fill="rgb(38%,75%,14%)" height="1" width="1" x="0" y="2" />
    <rect fill="rgb(38%,75%,14%)" height="1" width="1" x="1" y="2" />
    <rect fill="rgb(38%,75%,14%)" height="1" width="1" x="2" y="2" />
    <rect fill="rgb(38%,75%,14%)" height="1" width="1" x="3" y="2" />
    <rect fill="rgb(61%,84%,24%)" height="1" width="1" x="4" y="2" />
    <rect fill="rgb(61%,84%,24%)" height="1" width="1" x="5" y="2" />
    <rect fill="rgb(61%,84%,24%)" height="1" width="1" x="6" y="2" />
    <rect fill="rgb(61%,84%,24%)" height="1" width="1" x="7" y="2" />
    <rect fill="rgb(68%,92%,29%)" height="1" width="1" x="8" y="2" />
    <rect fill="rgb(68%,92%,29%)" height="1" width="1" x="9" y="2" />
    <rect fill="rgb(68%,92%,29%)" height="1" width="1" x="10" y="2" />
    <rect fill="rgb(68%,92%,29%)" height="1" width="1" x="11" y="2" />
    <rect fill="rgb(38%,75%,14%)" height="1" width="1" x="0" y="3" />
    <rect fill="rgb(38%,75%,14%)" height="1" width="1" x="1" y="3" />
    <rect fill="rgb(38%,75%,14%)" height="1" width="1" x="2" y="3" />
    <rect fill="rgb(38%,75%,14%)" height="1" width="1" x="3" y="3" />
    <rect fill="rgb(61%,84%,24%)" height="1" width="1" x="4" y="3" />
    <rect fill="rgb(61%,84%,24%)" height="1" width="1" x="5" y="3" />
    <rect fill="rgb(61%,84%,24%)" height="1" width="1" x="6" y="3" />
    <rect fill="rgb(61%,84%,24%)" height="1" width="1" x="7" y="3" />
    <rect fill="rgb(68%,92%,29%)" height="1" width="1" x="8" y="3" />
    <rect fill="rgb(68%,92%,29%)" height="1" width="1" x="9" y="3" />
    <rect fill="rgb(68%,92%,29%)" height="1" width="1" x="10" y="3" />
    <rect fill="rgb(68%,92%,29%)" height="1" width="1" x="11" y="3" />
    <rect fill="rgb(38%,75%,14%)" height="1" width="1" x="0" y="4" />
    <rect fill="rgb(38%,75%,14%)" height="1" width="1" x="1" y="4" />
    <rect fill="rgb(100%,100%,100%)" height="1" width="1" x="2" y="4" />
    <rect fill="rgb(100%,100%,100%)" height="1" width="1" x="3" y="4" />
    <rect fill="rgb(0%,0%,0%)" height="1" width="1" x="4" y="4" />
    <rect fill="rgb(0%,0%,0%)" height="1" width="1" x="5" y="4" />
    <rect fill="rgb(100%,100%,100%)" height="1" width="1" x="6" y="4" />
    <rect fill="rgb(100%,100%,100%)" height="1" width="1" x="7" y="4" />
    <rect fill="rgb(0%,0%,0%)" height="1" width="1" x="8" y="4" />
    <rect fill="rgb(0%,0%,0%)" height="1" width="1" x="9" y="4" />
    <rect fill="rgb(68%,92%,29%)" height="1" width="1" x="10" y="4" />
    <rect fill="rgb(68%,92%,29%)" height="1" width="1" x="11" y="4" />
    <rect fill="rgb(38%,75%,14%)" height="1" width="1" x="0" y="5" />
    <rect fill="rgb(38%,75%,14%)" height="1" width="1" x="1" y="5" />
    <rect fill="rgb(100%,100%,100%)" height="1" width="1" x="2" y="5" />
    <rect fill="rgb(100%,100%,100%)" height="1" width="1" x="3" y="5" />
    <rect fill="rgb(0%,0%,0%)" height="1" width="1" x="4" y="5" />
    <rect fill="rgb(0%,0%,0%)" height="1" width="1" x="5" y="5" />
    <rect fill="rgb(100%,100%,100%)" height="1" width="1" x="6" y="5" />
    <rect fill="rgb(100%,100%,100%)" height="1" width="1" x="7" y="5" />
    <rect fill="rgb(0%,0%,0%)" height="1" width="1" x="8" y="5" />
    <rect fill="rgb(0%,0%,0%)" height="1" width="1" x="9" y="5" />
    <rect fill="rgb(68%,92%,29%)" height="1" width="1" x="10" y="5" />
    <rect fill="rgb(68%,92%,29%)" height="1" width="1" x="11" y="5" />
    <rect fill="rgb(38%,75%,14%)" height="1" width="1" x="0" y="6" />
    <rect fill="rgb(38%,75%,14%)" height="1" width="1" x="1" y="6" />
    <rect fill="rgb(38%,75%,14%)" height="1" width="1" x="2" y="6" />
    <rect fill="rgb(38%,75%,14%)" height="1" width="1" x="3" y="6" />
    <rect fill="rgb(70%,9%,43%)" height="1" width="1" x="4" y="6" />
    <rect fill="rgb(70%,9%,43%)" height="1" width="1" x="5" y="6" />
    <rect fill="rgb(76%,16%,49%)" height="1" width="1" x="6" y="6" />
    <rect fill="rgb(76%,16%,49%)" height="1" width="1" x="7" y="6" />
    <rect fill="rgb(76%,16%,49%)" height="1" width="1" x="8" y="6" />
    <rect fill="rgb(76%,16%,49%)" height="1" width="1" x="9" y="6" />
    <rect fill="rgb(68%,92%,29%)" height="1" width="1" x="10" y="6" />
    <rect fill="rgb(68%,92%,29%)" height="1" width="1" x="11" y="6" />
    <rect fill="rgb(38%,75%,14%)" height="1" width="1" x="0" y="7" />
    <rect fill="rgb(38%,75%,14%)" height="1" width="1" x="1" y="7" />
    <rect fill="rgb(38%,75%,14%)" height="1" width="1" x="2" y="7" />
    <rect fill="rgb(38%,75%,14%)" height="1" width="1" x="3" y="7" />
    <rect fill="rgb(70%,9%,43%)" height="1" width="1" x="4" y="7" />
    <rect fill="rgb(70%,9%,43%)" height="1" width="1" x="5" y="7" />
    <rect fill="rgb(76%,16%,49%)" height="1" width="1" x="6" y="7" />
    <rect fill="rgb(76%,16%,49%)" height="1" width="1" x="7" y="7" />
    <rect fill="rgb(76%,16%,49%)" height="1" width="1" x="8" y="7" />
    <rect fill="rgb(76%,16%,49%)" height="1" width="1" x="9" y="7" />
    <rect fill="rgb(68%,92%,29%)" height="1" width="1" x="10" y="7" />
    <rect fill="rgb(68%,92%,29%)" height="1" width="1" x="11" y="7" />
    <rect fill="rgb(38%,75%,14%)" height="1" width="1" x="0" y="8" />
    <rect fill="rgb(38%,75%,14%)" height="1" width="1" x="1" y="8" />
    <rect fill="rgb(38%,75%,14%)" height="1" width="1" x="2" y="8" />
    <rect fill="rgb(38%,75%,14%)" height="1" width="1" x="3" y="8" />
    <rect fill="rgb(61%,84%,24%)" height="1" width="1" x="4" y="8" />
    <rect fill="rgb(61%,84%,24%)" height="1" width="1" x="5" y="8" />
    <rect fill="rgb(61%,84%,24%)" height="1" width="1" x="6" y="8" />
    <rect fill="rgb(61%,84%,24%)" height="1" width="1" x="7" y="8" />
    <rect fill="rgb(68%,92%,29%)" height="1" width="1" x="8" y="8" />
    <rect fill="rgb(68%,92%,29%)" height="1" width="1" x="9" y="8" />
    <rect fill="rgb(68%,92%,29%)" height="1" width="1" x="10" y="8" />
    <rect fill="rgb(68%,92%,29%)" height="1" width="1" x="11" y="8" />
    <rect fill="rgb(38%,75%,14%)" height="1" width="1" x="0" y="9" />
    <rect fill="rgb(38%,75%,14%)" height="1" width="1" x="1" y="9" />
    <rect fill="rgb(38%,75%,14%)" height="1" width="1" x="2" y="9" />
    <rect fill="rgb(38%,75%,14%)" height="1" width="1" x="3" y="9" />
    <rect fill="rgb(61%,84%,24%)" height="1" width="1" x="4" y="9" />
    <rect fill="rgb(61%,84%,24%)" height="1" width="1" x="5" y="9" />
    <rect fill="rgb(61%,84%,24%)" height="1" width="1" x="6" y="9" />
    <rect fill="rgb(61%,84%,24%)" height="1" width="1" x="7" y="9" />
    <rect fill="rgb(68%,92%,29%)" height="1" width="1" x="8" y="9" />
    <rect fill="rgb(68%,92%,29%)" height="1" width="1" x="9" y="9" />
    <rect fill="rgb(68%,92%,29%)" height="1" width="1" x="10" y="9" />
    <rect fill="rgb(68%,92%,29%)" height="1" width="1" x="11" y="9" />
</svg>