<!DOCTYPE svg PUBLIC "-//W3C//DTD SVG 1.1//EN" "http://www.w3.org/Graphics/SVG/1.1/DTD/svg11.dtd">
<!-- Uploaded to: SVG Repo, www.svgrepo.com, Transformed by: SVG Repo Mixer Tools -->
<svg fill="#ffffff" height="800px" width="800px" version="1.1" id="Layer_1" xmlns="http://www.w3.org/2000/svg" xmlns:xlink="http://www.w3.org/1999/xlink" viewBox="0 0 512.011 512.011" xml:space="preserve">
<g id="SVGRepo_bgCarrier" stroke-width="0"/>
<g id="SVGRepo_tracerCarrier" stroke-linecap="round" stroke-linejoin="round"/>
<g id="SVGRepo_iconCarrier"> <g> <g> <path d="M503.467,392.539h-21.333l-40.859-54.479c11.543-5.474,19.526-17.229,19.526-30.854c0-15.906-10.877-29.269-25.6-33.058 v-9.609h8.533c4.713,0,8.533-3.82,8.533-8.533v-10.001c0-16.5-6.107-32.36-17.067-44.583v-13.679h68.267 c6.344,0,10.469-6.676,7.632-12.35l-42.667-85.333c-1.445-2.891-4.4-4.717-7.632-4.717H219.585L193.055,5.838 c-1.162-3.483-4.423-5.832-8.095-5.832h-28.484c-3.672,0-6.932,2.349-8.095,5.832l-26.53,79.501H102.4v-8.533 c0-4.713-3.821-8.533-8.533-8.533H51.2c-4.713,0-8.533,3.82-8.533,8.533v25.6H8.533c-4.713,0-8.533,3.82-8.533,8.533v17.067 c0,23.563,19.104,42.667,42.667,42.667v25.6c0,4.713,3.82,8.533,8.533,8.533h42.667c4.713,0,8.533-3.82,8.533-8.533v-8.533h17.067 v307.2h-51.2c-4.713,0-8.533,3.82-8.533,8.533s3.82,8.533,8.533,8.533H128h85.436h102.298c4.713,0,8.533-3.821,8.533-8.533 s-3.82-8.533-8.533-8.533h-93.764V358.422c0-0.011,0-0.023,0-0.034v-68.233c0-0.011,0-0.023,0-0.034v-68.233 c0-0.011,0-0.023,0-0.034v-34.113h196.164v13.679c-10.959,12.223-17.067,28.083-17.067,44.583v10.001 c0,4.713,3.82,8.533,8.533,8.533h8.533v17.067c0,4.713,3.82,8.533,8.533,8.533c9.427,0,17.067,7.64,17.067,17.067 s-7.64,17.067-17.067,17.067c-0.311,0-0.617,0.019-0.919,0.051c-0.092,0.01-0.183,0.029-0.275,0.042 c-0.209,0.029-0.418,0.061-0.622,0.105c-0.12,0.026-0.239,0.061-0.358,0.092c-0.169,0.044-0.338,0.09-0.502,0.144 c-0.138,0.045-0.274,0.098-0.411,0.15c-0.139,0.054-0.276,0.11-0.411,0.171c-0.147,0.066-0.292,0.135-0.436,0.21 c-0.118,0.061-0.233,0.127-0.347,0.194c-0.147,0.086-0.294,0.171-0.438,0.266c-0.114,0.076-0.222,0.16-0.333,0.241 c-0.18,0.133-0.356,0.269-0.527,0.418c-0.173,0.15-0.342,0.303-0.503,0.466c-0.075,0.076-0.144,0.159-0.217,0.238 c-0.15,0.164-0.294,0.333-0.431,0.509c-0.031,0.04-0.067,0.075-0.098,0.116l-48.64,64.853h-21.333 c-4.713,0-8.533,3.821-8.533,8.533v68.267c0,4.713,3.82,8.533,8.533,8.533h153.6c4.713,0,8.533-3.82,8.533-8.533v-68.267 C512,396.359,508.18,392.539,503.467,392.539z M376.258,102.409h32.757l-16.379,20.473L376.258,102.409z M381.709,136.542 l-23.205,29.007l-23.205-29.007l23.205-29.007L381.709,136.542z M324.37,122.882l-16.379-20.473h32.757L324.37,122.882z M313.442,136.542l-23.205,29.007l-23.205-29.007l23.205-29.007L313.442,136.542z M256.103,122.882l-16.379-20.473h32.757 L256.103,122.882z M204.902,137.288l-19.355-13.549l19.355-13.549V137.288z M199.159,154.1l-28.389,22.711l-28.485-22.788 l28.382-19.867L199.159,154.1z M136.533,137.216v-26.954l19.253,13.477L136.533,137.216z M136.533,179.205v-7.928l20.577,16.461 L136.533,204.2V179.205z M204.902,408.917l-20.472-16.378l20.472-16.378V408.917z M136.533,340.733v-32.923l20.577,16.461 L136.533,340.733z M170.77,335.2l29.007,23.205l-29.007,23.205l-29.007-23.205L170.77,335.2z M141.763,290.139l29.007-23.205 l29.007,23.205l-29.007,23.205L141.763,290.139z M136.533,272.467v-32.923l20.577,16.461L136.533,272.467z M136.533,376.078 l20.577,16.461L136.533,409V376.078z M170.77,403.467l29.485,23.588l-29.485,26.537l-29.485-26.537L170.77,403.467z M184.43,324.272l20.472-16.378v32.756L184.43,324.272z M184.43,256.005l20.472-16.378v32.756L184.43,256.005z M170.77,245.077 l-29.007-23.205l29.007-23.205l29.007,23.205L170.77,245.077z M158.014,465.072l-21.481,19.333V445.74L158.014,465.072z M170.77,476.553l20.429,18.386h-40.858L170.77,476.553z M183.526,465.072l21.376-19.239v38.478L183.526,465.072z M204.902,179.209v24.908l-20.472-16.378l20.472-16.378V179.209z M221.969,153.733c0-0.003,0-0.006,0-0.009v-46.19l23.206,29.008 l-23.206,29.008V153.733z M256.103,150.202l16.379,20.473h-32.757L256.103,150.202z M324.37,150.202l16.379,20.473h-32.757 L324.37,150.202z M392.637,150.202l16.379,20.473h-32.757L392.637,150.202z M444.954,170.676l28.002-33.407l16.703,33.407H444.954 z M464.636,120.628l-37.762,45.051l-23.309-29.136l27.307-34.133h24.655L464.636,120.628z M162.624,17.072h16.188l24.495,73.403 l-32.639,22.848l-32.557-22.79L162.624,17.072z M17.067,128.005v-8.533h25.6v34.133C28.529,153.605,17.067,142.143,17.067,128.005 z M85.333,187.739h-25.6v-25.6v-51.2v-25.6h25.6v8.533v85.333V187.739z M102.4,170.672v-68.267h17.067v68.267H102.4z M418.133,246.004c0-10.002,3.011-19.689,8.533-27.855c5.523,8.166,8.533,17.853,8.533,27.855v1.468h-17.067V246.004z M426.667,347.028l34.133,45.511h-68.267L426.667,347.028z M494.933,460.806H358.4v-51.2h17.067h102.4h17.067V460.806z"/> </g> </g> </g>
</svg>