<?xml version="1.0" standalone="no"?>
<svg version="1.0" xmlns="http://www.w3.org/2000/svg"
 width="11px" height="11px" viewBox="0 0 11 11" shape-rendering="crispEdges">
    <rect fill="#ff0e0e" x="3" y="1" width="6" height="1"/>
    <rect fill="#ff0e0e" x="2" y="2" width="3" height="1"/>
    <rect fill="#ed1313" x="5" y="2" width="5" height="1"/>
    <rect fill="#ff0e0e" x="1" y="3" width="3" height="1"/>
    <rect fill="#ed1313" x="4" y="3" width="1" height="1"/>
    <rect fill="#ed1313" x="2" y="4" width="2" height="1"/>
    <rect fill="#ff0e0e" x="1" y="4" width="1" height="1"/>

    <rect fill="#c7c7c7" x="0" y="5" width="2" height="2"/>

    <rect fill="#c7c7c7" x="5" y="3" width="7" height="1"/>
    <rect fill="#c7c7c7" x="4" y="4" width="1" height="1"/>
    <rect fill="#c7c7c7" x="3" y="5" width="1" height="1"/>


    <rect fill="#ffffff" x="5" y="4" width="6" height="1"/>
    <rect fill="#ffffff" x="4" y="5" width="7" height="1"/>
    <rect fill="#ffffff" x="3" y="6" width="7" height="1"/>
    <rect fill="#ffffff" x="2" y="7" width="8" height="1"/>
    <rect fill="#ffffff" x="2" y="8" width="7" height="2"/>
</svg>
