<?xml version="1.0" standalone="no"?>
<!DOCTYPE svg PUBLIC "-//W3C//DTD SVG 20010904//EN"
 "http://www.w3.org/TR/2001/REC-SVG-20010904/DTD/svg10.dtd">
<svg version="1.0" xmlns="http://www.w3.org/2000/svg"
 width="802.000000pt" height="802.000000pt" viewBox="0 0 802.000000 802.000000"
 preserveAspectRatio="xMidYMid meet">

<g transform="translate(0.000000,802.000000) scale(0.100000,-0.100000)"
fill="#ffffff" stroke="none">
<path d="M3110 5810 l0 -300 -300 0 -300 0 0 -300 0 -300 -300 0 -300 0 0
-600 0 -600 -300 0 -300 0 0 -900 0 -900 2100 0 2100 0 0 600 0 600 300 0 300
0 0 600 0 600 300 0 300 0 0 600 0 600 -300 0 -300 0 0 300 0 300 -600 0 -600
0 0 -300 0 -300 -300 0 -300 0 0 300 0 300 -600 0 -600 0 0 -300z"/>
</g>
</svg>
