<!DOCTYPE svg PUBLIC "-//W3C//DTD SVG 1.1//EN" "http://www.w3.org/Graphics/SVG/1.1/DTD/svg11.dtd">
<!-- Uploaded to: SVG Repo, www.svgrepo.com, Transformed by: SVG Repo Mixer Tools -->
<svg width="800px" height="800px" viewBox="-0.5 0 25 25" fill="none" xmlns="http://www.w3.org/2000/svg">
<g id="SVGRepo_bgCarrier" stroke-width="0"/>
<g id="SVGRepo_tracerCarrier" stroke-linecap="round" stroke-linejoin="round"/>
<g id="SVGRepo_iconCarrier"> <path d="M12.71 3.45001L15.17 7.94C15.2272 8.04557 15.307 8.1371 15.4039 8.20801C15.5007 8.27892 15.6121 8.3274 15.73 8.34998L20.73 9.29999C20.8726 9.327 21.0053 9.39183 21.1142 9.48767C21.2232 9.58352 21.3044 9.70688 21.3494 9.84485C21.3943 9.98282 21.4014 10.1303 21.3698 10.272C21.3383 10.4136 21.2693 10.5442 21.17 10.65L17.66 14.38C17.5784 14.4676 17.5172 14.5723 17.4809 14.6864C17.4446 14.8005 17.4341 14.9213 17.45 15.04L18.09 20.12C18.1098 20.2633 18.0903 20.4094 18.0337 20.5425C17.9771 20.6757 17.8854 20.791 17.7684 20.8762C17.6514 20.9613 17.5135 21.0132 17.3694 21.0262C17.2253 21.0392 17.0804 21.0129 16.95 20.95L12.32 18.77C12.2114 18.7155 12.0915 18.6871 11.97 18.6871C11.8485 18.6871 11.7286 18.7155 11.62 18.77L6.99 20.95C6.85904 21.0119 6.71392 21.0375 6.56971 21.0242C6.4255 21.0109 6.28751 20.9591 6.17008 20.8744C6.05265 20.7896 5.96006 20.6749 5.90201 20.5422C5.84396 20.4096 5.82256 20.2638 5.84 20.12L6.49 15.04C6.50596 14.9213 6.49542 14.8005 6.45911 14.6864C6.4228 14.5723 6.36162 14.4676 6.28 14.38L2.76999 10.65C2.67072 10.5442 2.60172 10.4136 2.57017 10.272C2.53861 10.1303 2.54568 9.98282 2.59064 9.84485C2.63561 9.70688 2.71683 9.58352 2.82578 9.48767C2.93473 9.39183 3.06742 9.327 3.21 9.29999L8.21 8.34998C8.32789 8.3274 8.43929 8.27892 8.53614 8.20801C8.63299 8.1371 8.71286 8.04557 8.76999 7.94L11.28 3.45001C11.349 3.32033 11.4521 3.21187 11.578 3.13623C11.704 3.0606 11.8481 3.02063 11.995 3.02063C12.1419 3.02063 12.2861 3.0606 12.412 3.13623C12.538 3.21187 12.641 3.32033 12.71 3.45001V3.45001Z" stroke="#ffffff" stroke-width="1.5" stroke-linecap="round" stroke-linejoin="round"/> </g>
</svg>