<?xml version="1.0" encoding="utf-8"?>
<svg version="1.1" xmlns="http://www.w3.org/2000/svg"
    viewBox="0 0 12 8" shape-rendering="crispEdges"
    xmlns:ev="http://www.w3.org/2001/xml-events" xmlns:xlink="http://www.w3.org/1999/xlink">
    <rect fill="rgb(6%,24%,1%)" height="1" width="1" x="0" y="0" />
    <rect fill="rgb(6%,24%,1%)" height="1" width="1" x="1" y="0" />
    <rect fill="rgb(6%,24%,1%)" height="1" width="1" x="2" y="0" />
    <rect fill="rgb(6%,24%,1%)" height="1" width="1" x="3" y="0" />
    <rect fill="rgb(81%,79%,64%)" height="1" width="1" x="4" y="0" />
    <rect fill="rgb(81%,79%,64%)" height="1" width="1" x="5" y="0" />
    <rect fill="rgb(87%,86%,75%)" height="1" width="1" x="6" y="0" />
    <rect fill="rgb(87%,86%,75%)" height="1" width="1" x="7" y="0" />
    <rect fill="rgb(92%,91%,84%)" height="1" width="1" x="8" y="0" />
    <rect fill="rgb(92%,91%,84%)" height="1" width="1" x="9" y="0" />
    <rect fill="rgb(92%,91%,84%)" height="1" width="1" x="10" y="0" />
    <rect fill="rgb(92%,91%,84%)" height="1" width="1" x="11" y="0" />
    <rect fill="rgb(6%,24%,1%)" height="1" width="1" x="0" y="1" />
    <rect fill="rgb(6%,24%,1%)" height="1" width="1" x="1" y="1" />
    <rect fill="rgb(6%,24%,1%)" height="1" width="1" x="2" y="1" />
    <rect fill="rgb(6%,24%,1%)" height="1" width="1" x="3" y="1" />
    <rect fill="rgb(81%,79%,64%)" height="1" width="1" x="4" y="1" />
    <rect fill="rgb(81%,79%,64%)" height="1" width="1" x="5" y="1" />
    <rect fill="rgb(87%,86%,75%)" height="1" width="1" x="6" y="1" />
    <rect fill="rgb(87%,86%,75%)" height="1" width="1" x="7" y="1" />
    <rect fill="rgb(92%,91%,84%)" height="1" width="1" x="8" y="1" />
    <rect fill="rgb(92%,91%,84%)" height="1" width="1" x="9" y="1" />
    <rect fill="rgb(92%,91%,84%)" height="1" width="1" x="10" y="1" />
    <rect fill="rgb(92%,91%,84%)" height="1" width="1" x="11" y="1" />
    <rect fill="rgb(6%,24%,1%)" height="1" width="1" x="0" y="2" />
    <rect fill="rgb(6%,24%,1%)" height="1" width="1" x="1" y="2" />
    <rect fill="rgb(100%,100%,100%)" height="1" width="1" x="2" y="2" />
    <rect fill="rgb(100%,100%,100%)" height="1" width="1" x="3" y="2" />
    <rect fill="rgb(8%,8%,8%)" height="1" width="1" x="4" y="2" />
    <rect fill="rgb(8%,8%,8%)" height="1" width="1" x="5" y="2" />
    <rect fill="rgb(100%,100%,100%)" height="1" width="1" x="6" y="2" />
    <rect fill="rgb(100%,100%,100%)" height="1" width="1" x="7" y="2" />
    <rect fill="rgb(8%,8%,8%)" height="1" width="1" x="8" y="2" />
    <rect fill="rgb(8%,8%,8%)" height="1" width="1" x="9" y="2" />
    <rect fill="rgb(10%,40%,4%)" height="1" width="1" x="10" y="2" />
    <rect fill="rgb(10%,40%,4%)" height="1" width="1" x="11" y="2" />
    <rect fill="rgb(6%,24%,1%)" height="1" width="1" x="0" y="3" />
    <rect fill="rgb(6%,24%,1%)" height="1" width="1" x="1" y="3" />
    <rect fill="rgb(100%,100%,100%)" height="1" width="1" x="2" y="3" />
    <rect fill="rgb(100%,100%,100%)" height="1" width="1" x="3" y="3" />
    <rect fill="rgb(8%,8%,8%)" height="1" width="1" x="4" y="3" />
    <rect fill="rgb(8%,8%,8%)" height="1" width="1" x="5" y="3" />
    <rect fill="rgb(100%,100%,100%)" height="1" width="1" x="6" y="3" />
    <rect fill="rgb(100%,100%,100%)" height="1" width="1" x="7" y="3" />
    <rect fill="rgb(8%,8%,8%)" height="1" width="1" x="8" y="3" />
    <rect fill="rgb(8%,8%,8%)" height="1" width="1" x="9" y="3" />
    <rect fill="rgb(10%,40%,4%)" height="1" width="1" x="10" y="3" />
    <rect fill="rgb(10%,40%,4%)" height="1" width="1" x="11" y="3" />
    <rect fill="rgb(6%,24%,1%)" height="1" width="1" x="0" y="4" />
    <rect fill="rgb(6%,24%,1%)" height="1" width="1" x="1" y="4" />
    <rect fill="rgb(6%,24%,1%)" height="1" width="1" x="2" y="4" />
    <rect fill="rgb(6%,24%,1%)" height="1" width="1" x="3" y="4" />
    <rect fill="rgb(45%,14%,6%)" height="1" width="1" x="4" y="4" />
    <rect fill="rgb(45%,14%,6%)" height="1" width="1" x="5" y="4" />
    <rect fill="rgb(45%,14%,6%)" height="1" width="1" x="6" y="4" />
    <rect fill="rgb(45%,14%,6%)" height="1" width="1" x="7" y="4" />
    <rect fill="rgb(45%,14%,6%)" height="1" width="1" x="8" y="4" />
    <rect fill="rgb(45%,14%,6%)" height="1" width="1" x="9" y="4" />
    <rect fill="rgb(10%,40%,4%)" height="1" width="1" x="10" y="4" />
    <rect fill="rgb(10%,40%,4%)" height="1" width="1" x="11" y="4" />
    <rect fill="rgb(6%,24%,1%)" height="1" width="1" x="0" y="5" />
    <rect fill="rgb(6%,24%,1%)" height="1" width="1" x="1" y="5" />
    <rect fill="rgb(6%,24%,1%)" height="1" width="1" x="2" y="5" />
    <rect fill="rgb(6%,24%,1%)" height="1" width="1" x="3" y="5" />
    <rect fill="rgb(45%,14%,6%)" height="1" width="1" x="4" y="5" />
    <rect fill="rgb(45%,14%,6%)" height="1" width="1" x="5" y="5" />
    <rect fill="rgb(45%,14%,6%)" height="1" width="1" x="6" y="5" />
    <rect fill="rgb(45%,14%,6%)" height="1" width="1" x="7" y="5" />
    <rect fill="rgb(45%,14%,6%)" height="1" width="1" x="8" y="5" />
    <rect fill="rgb(45%,14%,6%)" height="1" width="1" x="9" y="5" />
    <rect fill="rgb(10%,40%,4%)" height="1" width="1" x="10" y="5" />
    <rect fill="rgb(10%,40%,4%)" height="1" width="1" x="11" y="5" />
    <rect fill="rgb(51%,71%,71%)" height="1" width="1" x="0" y="6" />
    <rect fill="rgb(51%,71%,71%)" height="1" width="1" x="1" y="6" />
    <rect fill="rgb(51%,71%,71%)" height="1" width="1" x="2" y="6" />
    <rect fill="rgb(51%,71%,71%)" height="1" width="1" x="3" y="6" />
    <rect fill="rgb(72%,82%,82%)" height="1" width="1" x="4" y="6" />
    <rect fill="rgb(72%,82%,82%)" height="1" width="1" x="5" y="6" />
    <rect fill="rgb(8%,33%,2%)" height="1" width="1" x="6" y="6" />
    <rect fill="rgb(8%,33%,2%)" height="1" width="1" x="7" y="6" />
    <rect fill="rgb(72%,82%,82%)" height="1" width="1" x="8" y="6" />
    <rect fill="rgb(72%,82%,82%)" height="1" width="1" x="9" y="6" />
    <rect fill="rgb(72%,82%,82%)" height="1" width="1" x="10" y="6" />
    <rect fill="rgb(72%,82%,82%)" height="1" width="1" x="11" y="6" />
    <rect fill="rgb(51%,71%,71%)" height="1" width="1" x="0" y="7" />
    <rect fill="rgb(51%,71%,71%)" height="1" width="1" x="1" y="7" />
    <rect fill="rgb(51%,71%,71%)" height="1" width="1" x="2" y="7" />
    <rect fill="rgb(51%,71%,71%)" height="1" width="1" x="3" y="7" />
    <rect fill="rgb(72%,82%,82%)" height="1" width="1" x="4" y="7" />
    <rect fill="rgb(72%,82%,82%)" height="1" width="1" x="5" y="7" />
    <rect fill="rgb(8%,33%,2%)" height="1" width="1" x="6" y="7" />
    <rect fill="rgb(8%,33%,2%)" height="1" width="1" x="7" y="7" />
    <rect fill="rgb(72%,82%,82%)" height="1" width="1" x="8" y="7" />
    <rect fill="rgb(72%,82%,82%)" height="1" width="1" x="9" y="7" />
    <rect fill="rgb(72%,82%,82%)" height="1" width="1" x="10" y="7" />
    <rect fill="rgb(72%,82%,82%)" height="1" width="1" x="11" y="7" />
</svg>