<!DOCTYPE svg PUBLIC "-//W3C//DTD SVG 1.1//EN" "http://www.w3.org/Graphics/SVG/1.1/DTD/svg11.dtd">
<!-- Uploaded to: SVG Repo, www.svgrepo.com, Transformed by: SVG Repo Mixer Tools -->
<svg height="800px" width="800px" version="1.1" id="_x32_" xmlns="http://www.w3.org/2000/svg" xmlns:xlink="http://www.w3.org/1999/xlink" viewBox="0 0 512 512" xml:space="preserve" fill="#ffffff" stroke="#ffffff">
<g id="SVGRepo_bgCarrier" stroke-width="0"/>
<g id="SVGRepo_tracerCarrier" stroke-linecap="round" stroke-linejoin="round"/>
<g id="SVGRepo_iconCarrier"> <style type="text/css"> .st0{fill:#ffffff;} </style> <g> <path class="st0" d="M465.771,234.587c0-26.914-10.749-51.289-28.142-69.166c0.629-4.688,1.075-9.437,1.075-14.301 c0-54.151-40.625-98.726-93.05-105.14C319.308,17.754,281.874,0,240.206,0C160.476,0,95.853,64.624,95.853,144.361 c0,0.422,0.062,0.821,0.062,1.236c-29.975,20.27-49.686,54.58-49.686,93.494c0,53.346,37.08,97.937,86.842,109.667 c10.089,24.69,34.318,42.106,62.636,42.106c10.557,0,20.508-2.486,29.407-6.798V512h77.528v-83.988l30.236-51.657 c30.95-2.256,57.097-21.766,68.743-49.033C439.087,313.128,465.771,277.022,465.771,234.587z M260.615,342.229 c0.66,0.928,1.343,1.826,2.041,2.724l-3.43,1.396C259.725,344.984,260.208,343.625,260.615,342.229z M284.874,405.402v-40.579 c7.181,4.366,15.076,7.642,23.492,9.622L284.874,405.402z"/> </g> </g>
</svg>